<?xml version="1.0" standalone="no"?>
<!DOCTYPE svg PUBLIC "-//W3C//DTD SVG 20010904//EN"
 "http://www.w3.org/TR/2001/REC-SVG-20010904/DTD/svg10.dtd">
<svg version="1.0" xmlns="http://www.w3.org/2000/svg"
 width="1280.000000pt" height="720.000000pt" viewBox="0 0 1280.000000 720.000000"
 preserveAspectRatio="xMidYMid meet">

<g transform="translate(0.000000,720.000000) scale(0.100000,-0.100000)"
fill="#000000" stroke="none">
<path d="M7945 5280 c-132 -4 -259 -8 -282 -9 l-43 -1 0 -700 0 -700 23 5 c66
15 297 49 503 75 266 33 301 45 375 128 118 131 169 327 169 647 0 238 -36
362 -129 456 -103 103 -167 113 -616 99z m296 -273 c86 -58 134 -180 126 -321
-7 -139 -85 -328 -153 -372 -18 -12 -177 -42 -230 -44 -15 0 -23 143 -26 480
l-3 265 50 6 c28 3 84 7 126 7 64 2 81 -2 110 -21z"/>
<path d="M7285 5246 l-120 -11 3 -370 3 -370 -71 125 c-39 69 -130 232 -202
363 l-131 237 -31 -5 c-17 -2 -76 -9 -131 -15 -55 -6 -111 -13 -124 -16 l-24
-5 6 -297 c4 -163 10 -508 13 -767 3 -258 7 -475 9 -481 3 -11 322 59 337 74
3 4 12 133 19 287 6 154 15 283 19 288 6 7 133 -187 260 -395 29 -49 58 -88
64 -88 6 -1 86 12 179 27 l167 28 0 191 c0 105 -3 421 -7 702 l-6 512 -56 -1
c-31 -1 -110 -7 -176 -13z"/>
<path d="M9043 5245 c-78 -17 -158 -59 -189 -100 -55 -72 -66 -141 -38 -235
39 -131 118 -191 369 -280 146 -52 212 -80 261 -113 100 -69 98 -174 -4 -193
-54 -10 -232 4 -380 30 -92 15 -135 19 -137 12 -8 -24 -37 -367 -32 -372 16
-16 178 -28 382 -29 258 0 338 11 450 65 199 95 235 340 80 538 -93 120 -228
205 -448 283 -138 50 -179 71 -196 103 -12 22 -12 29 3 51 54 82 257 70 503
-29 48 -19 89 -33 92 -31 10 11 32 188 23 197 -16 16 -277 77 -419 98 -158 23
-232 24 -320 5z"/>
<path d="M3180 5211 c-149 -30 -283 -199 -326 -411 -32 -161 -3 -389 66 -519
67 -126 162 -208 376 -327 209 -116 264 -167 264 -247 0 -53 -40 -93 -102
-102 -88 -13 -249 22 -410 90 -45 19 -82 34 -83 32 -3 -4 -35 -321 -35 -348 0
-24 7 -28 103 -57 148 -44 198 -53 337 -59 269 -12 454 66 529 221 57 117 51
301 -13 431 -78 156 -195 259 -467 410 -173 96 -212 131 -225 202 -13 67 32
155 97 188 37 19 125 19 203 -1 33 -8 116 -42 184 -74 99 -48 122 -56 122 -42
0 9 7 100 15 202 8 102 15 199 15 216 0 31 0 32 -142 82 -175 63 -301 98 -393
112 -38 5 -72 9 -75 9 -3 -1 -21 -4 -40 -8z"/>
<path d="M6150 5175 c-85 -7 -156 -14 -157 -14 -13 -5 10 -913 28 -1087 13
-136 -1 -201 -57 -263 -42 -48 -79 -66 -177 -87 -91 -20 -100 -16 -122 60 -41
138 -55 368 -55 919 l0 438 -68 -5 c-37 -3 -114 -8 -172 -12 -62 -3 -108 -11
-112 -17 -11 -17 -9 -728 2 -977 21 -458 38 -594 77 -641 53 -63 92 -74 253
-74 121 0 158 4 225 23 321 93 476 232 531 478 15 70 16 104 5 363 -6 157 -11
413 -11 567 0 288 -4 345 -24 343 -6 -1 -81 -8 -166 -14z"/>
<path d="M4405 5155 c-109 -20 -186 -51 -221 -88 -57 -61 -100 -213 -126 -445
-20 -183 -17 -798 5 -982 28 -228 42 -277 91 -326 52 -52 134 -83 243 -93 168
-14 361 18 499 83 130 61 197 145 234 292 19 75 20 93 10 498 -5 232 -14 462
-20 511 -17 148 -41 277 -62 332 -38 102 -156 187 -303 218 -85 18 -254 18
-350 0z m337 -490 c42 -42 52 -95 55 -290 1 -99 10 -281 19 -405 18 -250 18
-280 2 -330 -28 -89 -85 -126 -214 -141 -101 -11 -118 -5 -144 54 -35 80 -43
200 -36 544 4 176 11 349 17 383 23 141 95 208 225 210 42 0 56 -5 76 -25z"/>
<path d="M2281 4456 c-118 -56 -216 -107 -219 -114 -2 -6 26 -122 62 -258 36
-135 64 -250 61 -254 -3 -5 -18 -11 -34 -15 -37 -8 -107 -82 -116 -123 -13
-60 37 -112 100 -103 56 8 135 90 135 139 0 13 -29 132 -65 265 -36 133 -65
251 -65 263 0 17 29 35 173 102 95 45 179 82 187 82 13 0 54 -135 117 -387 4
-18 -2 -25 -33 -38 -52 -21 -83 -52 -105 -102 -22 -47 -15 -81 23 -107 31 -22
66 -20 113 7 40 23 85 86 85 121 0 10 -36 154 -80 318 -44 165 -80 302 -80
304 0 17 -75 -12 -259 -100z"/>
<path d="M10365 4461 c-192 -60 -235 -83 -235 -126 0 -22 28 -55 46 -55 5 0
41 13 79 29 39 16 115 41 170 56 130 35 142 40 154 63 8 16 6 26 -10 46 -28
35 -58 33 -204 -13z"/>
<path d="M10152 4020 c-12 -12 -22 -24 -22 -28 0 -25 38 -53 97 -73 87 -28
230 -87 259 -106 28 -18 73 -14 87 8 5 9 7 28 3 42 -5 22 -25 36 -109 76 -104
50 -243 101 -275 101 -10 0 -28 -9 -40 -20z"/>
<path d="M9952 3764 c-12 -8 -22 -22 -22 -30 0 -9 30 -63 66 -121 36 -58 79
-134 95 -168 39 -82 61 -102 94 -87 33 15 40 51 20 98 -28 68 -143 258 -176
292 -36 36 -45 38 -77 16z"/>
<path d="M9540 3753 c-25 -2 -60 -6 -77 -8 l-33 -6 -1 -117 c-1 -64 -4 -151
-8 -192 l-6 -75 -94 189 -93 188 -57 -6 c-31 -4 -68 -9 -83 -12 l-27 -5 -3
-357 c-2 -196 -1 -360 2 -363 3 -4 42 -4 86 -2 l82 5 6 69 c3 38 9 101 12 139
4 39 10 70 15 70 4 0 40 -63 79 -140 39 -77 72 -140 73 -141 1 0 43 -6 94 -12
l92 -13 5 46 c3 25 8 204 12 398 6 340 6 352 -12 350 -11 -1 -39 -3 -64 -5z"/>
<path d="M8884 3698 l-71 -10 -22 -186 c-30 -254 -32 -272 -40 -272 -4 0 -29
47 -55 105 -27 58 -53 108 -57 111 -5 2 -37 0 -73 -6 l-64 -12 -64 -134 c-34
-74 -66 -134 -70 -134 -5 0 -8 28 -9 63 -1 130 -15 377 -21 383 -4 3 -48 0
-98 -7 l-92 -12 6 -51 c10 -90 45 -468 52 -568 8 -113 -2 -108 129 -77 l90 20
65 152 c36 84 69 152 74 152 5 0 31 -58 57 -130 25 -71 51 -130 55 -132 5 -1
54 5 109 15 l100 18 36 210 c37 212 85 465 95 497 6 20 -14 21 -132 5z"/>
<path d="M7835 3549 c-75 -11 -156 -35 -212 -61 -78 -37 -103 -116 -110 -354
-5 -156 6 -334 23 -379 29 -74 247 -52 387 39 68 44 90 69 124 141 l28 60 0
220 c0 237 -9 294 -48 319 -30 19 -119 26 -192 15z m65 -169 c7 -17 10 -45 7
-64 -3 -18 -1 -91 3 -162 9 -122 8 -131 -13 -174 -25 -51 -76 -82 -136 -84
-32 -1 -37 2 -48 34 -24 70 -9 379 21 422 22 31 74 57 117 58 31 0 38 -4 49
-30z"/>
<path d="M7162 3390 c-155 -31 -285 -59 -287 -62 -6 -5 -26 -201 -21 -205 1
-2 40 8 87 22 46 13 91 25 99 25 14 0 15 -21 13 -157 -8 -434 -8 -493 -3 -493
3 0 51 15 105 33 l100 34 5 319 c3 175 7 319 8 320 1 1 40 11 86 24 95 25 89
17 101 138 4 34 3 62 -2 61 -4 -1 -135 -27 -291 -59z"/>
<path d="M6683 3287 l-83 -21 0 -71 c0 -140 -13 -405 -20 -405 -8 0 -97 208
-151 350 -17 47 -33 86 -34 88 -5 6 -141 -31 -151 -42 -8 -8 -14 -152 -18
-478 l-7 -467 89 30 89 30 8 127 c4 70 10 145 13 166 l7 39 75 -131 c41 -73
79 -132 84 -132 5 0 48 12 96 26 l88 26 6 82 c3 44 8 221 11 391 3 171 8 334
11 363 6 61 10 60 -113 29z"/>
<path d="M6076 3169 c-49 -10 -90 -20 -91 -21 -1 -2 -14 -140 -29 -308 -31
-354 -35 -392 -46 -385 -5 3 -30 69 -56 148 -26 78 -48 143 -49 145 -1 2 -33
-5 -70 -14 -50 -13 -68 -22 -74 -38 -4 -12 -34 -96 -65 -188 -32 -93 -62 -168
-67 -168 -5 0 -9 67 -9 148 0 82 -3 243 -7 358 l-6 210 -89 -12 c-50 -7 -93
-15 -96 -18 -5 -6 17 -478 40 -828 9 -143 14 -178 26 -178 8 0 55 9 103 21
105 24 91 6 175 232 32 86 61 154 64 150 4 -5 26 -69 49 -143 24 -74 47 -139
51 -144 5 -5 54 7 113 29 l105 37 6 41 c15 110 126 877 131 910 6 43 13 42
-109 16z"/>
<path d="M4890 3001 c-99 -32 -128 -50 -149 -94 -53 -110 -81 -422 -63 -698
14 -202 24 -232 92 -267 40 -21 56 -23 135 -19 163 7 258 65 306 183 24 58 24
65 24 394 0 371 -6 429 -53 473 -15 14 -40 31 -55 36 -44 17 -175 12 -237 -8z
m161 -238 c11 -12 15 -79 20 -282 6 -244 5 -270 -12 -309 -20 -47 -62 -72
-122 -72 -44 0 -55 14 -69 90 -14 83 7 457 30 513 25 65 119 102 153 60z"/>
<path d="M3568 2953 c-35 -4 -38 -7 -38 -36 -1 -89 23 -525 29 -541 5 -14 24
-23 64 -31 l57 -11 0 133 0 133 25 0 c31 0 91 -29 134 -65 l31 -27 0 55 c0 53
-2 57 -42 91 -34 30 -87 56 -144 71 -13 4 -27 136 -15 148 13 13 119 -10 167
-37 l44 -25 0 48 c0 53 -7 62 -60 80 -38 13 -191 22 -252 14z"/>
<path d="M3136 2921 c-16 -3 -38 -19 -50 -34 -19 -25 -21 -42 -21 -155 0 -73
6 -149 13 -179 17 -64 68 -126 132 -158 102 -52 182 -42 228 28 27 40 27 43
26 203 -2 283 -16 305 -194 303 -58 -1 -118 -4 -134 -8z m202 -113 c5 -7 13
-86 17 -174 l7 -162 -26 -17 c-35 -23 -104 -15 -128 15 -15 19 -18 43 -18 157
0 141 7 168 43 183 33 13 93 12 105 -2z"/>
<path d="M4206 2910 l-119 -5 -3 -45 c-11 -176 -25 -903 -18 -910 12 -10 217
-30 321 -30 67 0 86 4 114 23 45 30 86 109 106 204 23 112 23 450 0 551 -23
99 -54 168 -89 197 -32 27 -42 28 -312 15z m184 -289 c76 -83 86 -316 19 -452
-29 -58 -45 -69 -99 -69 -85 0 -80 -20 -74 268 3 142 7 263 10 270 2 8 23 12
60 12 49 0 59 -4 84 -29z"/>
</g>
</svg>
